<svg xmlns="http://www.w3.org/2000/svg" xmlns:xlink="http://www.w3.org/1999/xlink" width="182" height="40" viewBox="0 0 182 40">
  <defs>
    <clipPath id="clip-path">
      <rect id="Retângulo_2" data-name="Retângulo 2" width="182" height="40" transform="translate(137 10)" fill="#fff" stroke="#707070" stroke-width="1"/>
    </clipPath>
  </defs>
  <g id="logo-riseramen" transform="translate(-137 -10)" clip-path="url(#clip-path)">
    <g id="logo-riseramen-2" data-name="logo-riseramen" transform="translate(137 13.193)">
      <path id="Caminho_1" data-name="Caminho 1" d="M89.515,48.4a.812.812,0,0,1,.983.73v3.228a.815.815,0,0,1-.888.759c-3.62-.224-4.046,1.909-4.046,4.157v4.605A1.049,1.049,0,0,1,84.489,62.9H81.667a1.047,1.047,0,0,1-1.074-1.012V49.666a1.049,1.049,0,0,1,1.074-1.012h2.822a1.047,1.047,0,0,1,1.074,1.012V50.82A6.01,6.01,0,0,1,89.515,48.4Z" transform="translate(-37.411 -34.084)" fill="#fff"/>
      <path id="Caminho_2" data-name="Caminho 2" d="M96.47,41.612a2.53,2.53,0,0,1,2.637-2.386,2.4,2.4,0,1,1,0,4.772A2.527,2.527,0,0,1,96.47,41.612Zm.122,17.214V46.611A1.058,1.058,0,0,1,97.7,45.6h2.791a1.058,1.058,0,0,1,1.105,1.012V58.826a1.058,1.058,0,0,1-1.105,1.012H97.7A1.058,1.058,0,0,1,96.592,58.826Z" transform="translate(-41.73 -31.028)" fill="#fff"/>
      <path id="Caminho_3" data-name="Caminho 3" d="M119.4,58.421c0,3-2.392,4.775-6.959,4.775-2.759,0-5.428-.7-6.438-2.61a.715.715,0,0,1,.489-1.041l3.036-.871a.93.93,0,0,1,.92.282,2.342,2.342,0,0,0,1.93.7c1.042,0,1.871-.282,1.871-1.041,0-.954-1.626-.925-3.434-1.291-3-.589-4.6-1.572-4.6-4.381,0-2.975,2.759-4.663,6.656-4.663,2.329,0,4.662.9,5.641,2.751a.77.77,0,0,1-.553,1.066l-2.637.589a.85.85,0,0,1-.829-.307,1.985,1.985,0,0,0-1.595-.618c-.983,0-1.871.253-1.871,1.066,0,.925,1.654.983,2.882,1.207C117.834,54.8,119.4,55.807,119.4,58.421Z" transform="translate(-44.296 -34.047)" fill="#fff"/>
      <path id="Caminho_4" data-name="Caminho 4" d="M141.636,56.118a1.049,1.049,0,0,1-1.074,1.012H130.35c.521,1.656,2.025,2.415,3.924,2.415a4.544,4.544,0,0,0,2.759-.871.843.843,0,0,1,.951-.083l2.179,1.178a.75.75,0,0,1,.213,1.15,8.453,8.453,0,0,1-6.1,2.274c-5.274,0-8.74-3.033-8.74-7.443,0-4.211,3.557-7.468,8-7.468C137.894,48.281,141.727,50.808,141.636,56.118Zm-4.54-1.742a3.106,3.106,0,0,0-3.371-2.444,3.313,3.313,0,0,0-3.344,2.444Z" transform="translate(-49.635 -34.047)" fill="#fff"/>
      <path id="Caminho_5" data-name="Caminho 5" d="M159.187,48.4a.812.812,0,0,1,.983.73v3.228a.815.815,0,0,1-.888.759c-3.62-.224-4.046,1.909-4.046,4.157v4.605a1.049,1.049,0,0,1-1.074,1.012h-2.822a1.047,1.047,0,0,1-1.074-1.012V49.666a1.049,1.049,0,0,1,1.074-1.012h2.822a1.047,1.047,0,0,1,1.074,1.012V50.82A6,6,0,0,1,159.187,48.4Z" transform="translate(-56.362 -34.084)" fill="#fff"/>
      <path id="Caminho_6" data-name="Caminho 6" d="M177.33,48.617H180.4a1.058,1.058,0,0,1,1.105,1.012V61.844a1.058,1.058,0,0,1-1.105,1.012H177.33a.791.791,0,0,1-.829-.759V61.45a5.527,5.527,0,0,1-4.386,1.742,7.456,7.456,0,0,1,0-14.912,5.515,5.515,0,0,1,4.386,1.742v-.647A.8.8,0,0,1,177.33,48.617Zm-.979,7.136a3.065,3.065,0,0,0-3.344-3.062,3.058,3.058,0,1,0,0,6.095A3.06,3.06,0,0,0,176.351,55.753Z" transform="translate(-60.278 -34.047)" fill="#fff"/>
      <path id="Caminho_7" data-name="Caminho 7" d="M214.826,53.45v8.4a1.058,1.058,0,0,1-1.105,1.012H210.93a1.058,1.058,0,0,1-1.105-1.012V54.687a1.853,1.853,0,0,0-2.053-1.938,1.879,1.879,0,0,0-2.084,1.938v7.161a1.058,1.058,0,0,1-1.105,1.012h-2.791a1.047,1.047,0,0,1-1.074-1.012V54.687a1.863,1.863,0,0,0-2.084-1.938,1.893,1.893,0,0,0-2.084,1.938v7.161a1.049,1.049,0,0,1-1.074,1.012h-2.791a1.058,1.058,0,0,1-1.105-1.012V49.629a1.058,1.058,0,0,1,1.105-1.012h3.067a.783.783,0,0,1,.8.759v.336a5.171,5.171,0,0,1,3.865-1.432A4.992,4.992,0,0,1,204.8,50.19a5.544,5.544,0,0,1,4.445-1.909C213.077,48.281,214.826,50.584,214.826,53.45Z" transform="translate(-67.599 -34.047)" fill="#fff"/>
      <path id="Caminho_8" data-name="Caminho 8" d="M242.14,56.118a1.049,1.049,0,0,1-1.074,1.012H230.854c.521,1.656,2.025,2.415,3.924,2.415a4.544,4.544,0,0,0,2.759-.871.843.843,0,0,1,.951-.083l2.179,1.178a.75.75,0,0,1,.213,1.15,8.453,8.453,0,0,1-6.1,2.274c-5.274,0-8.74-3.033-8.74-7.443,0-4.211,3.557-7.468,8-7.468C238.4,48.281,242.231,50.808,242.14,56.118Zm-4.54-1.742a3.106,3.106,0,0,0-3.371-2.444,3.313,3.313,0,0,0-3.344,2.444Z" transform="translate(-76.972 -34.047)" fill="#fff"/>
      <path id="Caminho_9" data-name="Caminho 9" d="M265.7,53.953v7.891a1.049,1.049,0,0,1-1.074,1.012H261.8a1.047,1.047,0,0,1-1.074-1.012V55.189a2.483,2.483,0,0,0-4.966,0v6.655a1.058,1.058,0,0,1-1.105,1.012h-2.791a1.058,1.058,0,0,1-1.105-1.012V49.629a1.058,1.058,0,0,1,1.105-1.012h3.067a.791.791,0,0,1,.829.759v.535a5.511,5.511,0,0,1,4.232-1.63A5.4,5.4,0,0,1,265.7,53.953Z" transform="translate(-83.696 -34.047)" fill="#fff"/>
      <path id="Caminho_10" data-name="Caminho 10" d="M164.738,40.238v1.833a1,1,0,0,0,.986,1.012h12.951a1,1,0,0,0,.986-1.012V40.238a1,1,0,0,0-.986-1.012H165.724A.993.993,0,0,0,164.738,40.238Z" transform="translate(-58.488 -31.028)" fill="#fff"/>
      <path id="Caminho_30" data-name="Caminho 30" d="M3.583,17.557l.583-4.5L8.583,8.89l4.5-.75,5.167,2.333h4.333L27,14.307V16.64Z" fill="#fff"/>
      <g id="Grupo_5" data-name="Grupo 5" transform="translate(0)">
        <path id="Caminho_11" data-name="Caminho 11" d="M55.2,29.032a1.14,1.14,0,0,0-1.409.629L49.348,41.507a6.976,6.976,0,0,0-.75-1.573l2.894-11.767a1.021,1.021,0,0,0-.837-1.215,1.12,1.12,0,0,0-1.326.766L46.81,37.968A8.555,8.555,0,0,0,41.56,36.2a8.775,8.775,0,0,0-1.516.145,10.7,10.7,0,0,0-6.273-2.006c-5.27,0-9.608,3.7-10.09,8.416H22.387a1.151,1.151,0,0,0-.79.3.975.975,0,0,0-.32.73,15.065,15.065,0,0,0,7.532,12.566v3.174a1.067,1.067,0,0,0,1.109,1.016H46.277a1.067,1.067,0,0,0,1.109-1.016v-3.17a15.057,15.057,0,0,0,7.532-12.569.981.981,0,0,0-.32-.73,1.158,1.158,0,0,0-.79-.3H51.223l4.666-12.443A.993.993,0,0,0,55.2,29.032ZM32.737,39.884a5.418,5.418,0,0,0-3.363,2.877h-.849a6.275,6.275,0,0,1,4.09-3.89,5.615,5.615,0,0,1,2.771-.065c-.047.047-.091.1-.134.148-.146.163-.28.329-.411.5-.028.04-.059.076-.087.116l-.095.141A5.186,5.186,0,0,0,32.737,39.884Zm1.192,1.175a.635.635,0,0,0-.028.08,6.858,6.858,0,0,0-.241.727c-.012.047-.02.1-.036.145-.051.21-.095.419-.126.633-.008.04-.02.08-.024.119H31.048a3.88,3.88,0,0,1,2.132-1.587A3.671,3.671,0,0,1,33.929,41.059Zm7.627-.333a3.662,3.662,0,0,0-.995.137,3.8,3.8,0,0,0-2.3,1.9h-.537a4.329,4.329,0,0,1,2.771-2.538,3.874,3.874,0,0,1,1.062-.148,4.186,4.186,0,0,1,3.821,2.686h-.525A3.747,3.747,0,0,0,41.556,40.727Zm2.005,2.039H39.543a2.612,2.612,0,0,1,1.346-.929,2.411,2.411,0,0,1,.667-.094A2.551,2.551,0,0,1,43.561,42.765ZM37.8,39.472a5.505,5.505,0,0,1,.608-.4c.036-.022.071-.04.107-.058a5.875,5.875,0,0,1,.671-.318c.032-.014.067-.025.1-.036a5.89,5.89,0,0,1,.758-.239,6.388,6.388,0,0,1,1.52-.181A5.8,5.8,0,0,1,47.4,42.769h-.841a5.321,5.321,0,0,0-5.005-3.7,5.1,5.1,0,0,0-1.39.192,5.424,5.424,0,0,0-3.608,3.506h-.845v0a5.058,5.058,0,0,1,.182-.687c.012-.036.024-.069.036-.1a5.184,5.184,0,0,1,.272-.622c.02-.036.039-.076.059-.112a5.642,5.642,0,0,1,.367-.578l.059-.076a5.631,5.631,0,0,1,1.034-1.048C37.75,39.512,37.774,39.49,37.8,39.472Zm-4.026-3.094a8.5,8.5,0,0,1,3.695.839c-.036.018-.067.043-.1.061-.2.108-.391.228-.58.351l-.178.119,0,0a7.107,7.107,0,0,0-2.459-.441,7.189,7.189,0,0,0-1.974.275,7.735,7.735,0,0,0-5.207,5.18H25.9A7.722,7.722,0,0,1,33.771,36.378Z" transform="translate(-21.277 -26.93)"/>
        <g id="Grupo_4" data-name="Grupo 4" transform="translate(8.617 18.379)">
          <g id="Grupo_3" data-name="Grupo 3">
            <g id="Grupo_1" data-name="Grupo 1">
              <path id="Caminho_12" data-name="Caminho 12" d="M48.241,58.878a2.148,2.148,0,0,0-.564-1.486,3.07,3.07,0,0,0-2.1-.842,1.782,1.782,0,0,0-.336-1.07,2.691,2.691,0,0,0-1.8-.94,3.53,3.53,0,0,0-2.132.322,2.357,2.357,0,0,0-.9.853,2.912,2.912,0,0,0-1.3-.061,2.046,2.046,0,0,0-1.709,1.4,1.558,1.558,0,0,0,.067.752,1.678,1.678,0,0,0-1.693.463,1.654,1.654,0,0,1-1.011.484,2.139,2.139,0,0,1-1.3-.6.23.23,0,0,0-.221-.058.17.17,0,0,0-.126.155,3.385,3.385,0,0,0,1.693,2.953,3.3,3.3,0,0,0,1.342.412,2.715,2.715,0,0,0,.6-.007,2.248,2.248,0,0,0,1.9,1.587,1.905,1.905,0,0,0,.249.007,2.036,2.036,0,0,0,1.693-.8,1.812,1.812,0,0,0,.975.958,1.757,1.757,0,0,0,1.358.025,3.145,3.145,0,0,0,1.607-1.33.839.839,0,0,0,.043-.083,2.559,2.559,0,0,0,.347.054c.032,0,.067,0,.1.007A3.384,3.384,0,0,0,47.444,60.9,2.908,2.908,0,0,0,48.241,58.878Zm-1.1,1.8a2.937,2.937,0,0,1-2.061.98A1.441,1.441,0,0,1,44,61.2a1.008,1.008,0,0,1-.182-1.037,1.163,1.163,0,0,1,.829-.633,1.316,1.316,0,0,1,.742.076.232.232,0,0,0,.284-.094.171.171,0,0,0-.079-.249,1.764,1.764,0,0,0-1-.1,1.594,1.594,0,0,0-1.145.864,1.363,1.363,0,0,0,.233,1.424,1.567,1.567,0,0,0,.533.4c-.008.014-.016.033-.024.047a2.675,2.675,0,0,1-1.37,1.131,1.413,1.413,0,0,1-1.074-.011,1.337,1.337,0,0,1-.888-1.276.194.194,0,0,0-.178-.181h0a.2.2,0,0,0-.209.152,1.486,1.486,0,0,1-1.587,1.1,1.811,1.811,0,0,1-1.78-1.385,1.118,1.118,0,0,1,.347-.929.863.863,0,0,1,.655-.235,1.053,1.053,0,0,1,.8.918.2.2,0,0,0,.221.163.185.185,0,0,0,.166-.21,1.431,1.431,0,0,0-1.153-1.247,1.228,1.228,0,0,0-.975.329,1.4,1.4,0,0,0-.458,1,2.832,2.832,0,0,1-1.733-.351,2.911,2.911,0,0,1-1.433-2.191,2.292,2.292,0,0,0,1.251.445,1.986,1.986,0,0,0,1.255-.568c.466-.369.79-.582,1.322-.394a1.444,1.444,0,0,1,.284.145c.095.058.249.152.383.04s.039-.268-.032-.376a1.72,1.72,0,0,1-.134-.235,1.246,1.246,0,0,1-.059-.618c.091-.557.786-.98,1.4-1.1a2.3,2.3,0,0,1,1.022.04,1.712,1.712,0,0,0,.043,1.479,1.741,1.741,0,0,0,3.036.112,1.3,1.3,0,0,0,.1-.987.214.214,0,0,0-.264-.13.193.193,0,0,0-.154.235.954.954,0,0,1-.063.727,1.318,1.318,0,0,1-1.322.593,1.338,1.338,0,0,1-.947-.712,1.439,1.439,0,0,1,.032-1.294,1.97,1.97,0,0,1,.853-.9,2.861,2.861,0,0,1,3.32.513,1.525,1.525,0,0,1,.272,1.041.169.169,0,0,0,.055.137.226.226,0,0,0,.154.054,2.743,2.743,0,0,1,1.986.723,1.874,1.874,0,0,1,.486,1.28A2.588,2.588,0,0,1,47.144,60.678Z" transform="translate(-33.114 -54.498)" fill="#fff" stroke="#fff" stroke-miterlimit="10" stroke-width="0.407"/>
            </g>
            <g id="Grupo_2" data-name="Grupo 2" transform="translate(0.245 0.236)">
              <path id="Caminho_13" data-name="Caminho 13" d="M47.3,60.86a2.937,2.937,0,0,1-2.061.98,1.441,1.441,0,0,1-1.082-.459,1.008,1.008,0,0,1-.182-1.037,1.163,1.163,0,0,1,.829-.633,1.316,1.316,0,0,1,.742.076.232.232,0,0,0,.284-.094.171.171,0,0,0-.079-.249,1.764,1.764,0,0,0-1-.1,1.594,1.594,0,0,0-1.145.864,1.363,1.363,0,0,0,.233,1.424,1.567,1.567,0,0,0,.533.4c-.008.014-.016.033-.024.047a2.675,2.675,0,0,1-1.37,1.131,1.413,1.413,0,0,1-1.074-.011,1.337,1.337,0,0,1-.888-1.276.194.194,0,0,0-.178-.181h0a.2.2,0,0,0-.209.152,1.486,1.486,0,0,1-1.587,1.1,1.811,1.811,0,0,1-1.78-1.385,1.118,1.118,0,0,1,.347-.929.863.863,0,0,1,.655-.235,1.053,1.053,0,0,1,.8.918.2.2,0,0,0,.221.163.185.185,0,0,0,.166-.21A1.431,1.431,0,0,0,38.3,60.068a1.228,1.228,0,0,0-.975.329,1.4,1.4,0,0,0-.458,1,2.832,2.832,0,0,1-1.733-.351,2.911,2.911,0,0,1-1.433-2.191,2.291,2.291,0,0,0,1.251.445,1.986,1.986,0,0,0,1.255-.568c.466-.369.79-.582,1.322-.394a1.444,1.444,0,0,1,.284.145c.095.058.249.152.383.04s.039-.268-.032-.376a1.719,1.719,0,0,1-.134-.235,1.246,1.246,0,0,1-.059-.618c.091-.557.786-.98,1.4-1.1a2.3,2.3,0,0,1,1.022.04,1.712,1.712,0,0,0,.043,1.479,1.741,1.741,0,0,0,3.036.112,1.3,1.3,0,0,0,.1-.987.214.214,0,0,0-.264-.13.193.193,0,0,0-.154.235.954.954,0,0,1-.063.727,1.318,1.318,0,0,1-1.322.593,1.338,1.338,0,0,1-.947-.712,1.439,1.439,0,0,1,.032-1.294,1.97,1.97,0,0,1,.853-.9,2.861,2.861,0,0,1,3.32.513A1.525,1.525,0,0,1,45.3,56.9a.169.169,0,0,0,.055.137.226.226,0,0,0,.154.054,2.743,2.743,0,0,1,1.986.723,1.874,1.874,0,0,1,.486,1.28A2.588,2.588,0,0,1,47.3,60.86Z" transform="translate(-33.52 -54.916)" fill="#7e1416"/>
              <path id="Caminho_14" data-name="Caminho 14" d="M42.356,63.384a1.371,1.371,0,0,1-.584-.127,1.468,1.468,0,0,1-.967-1.392.046.046,0,0,0-.043-.047.047.047,0,0,0-.051.043,1.605,1.605,0,0,1-1.729,1.211,1.952,1.952,0,0,1-1.93-1.489,1.247,1.247,0,0,1,.391-1.056,1,1,0,0,1,.782-.271,1.194,1.194,0,0,1,.928,1.034c0,.029.028.054.055.047s.043-.036.039-.058a1.288,1.288,0,0,0-1.026-1.131,1.079,1.079,0,0,0-.853.293,1.281,1.281,0,0,0-.414.907l0,.108-.118.018a2.977,2.977,0,0,1-1.836-.369,3.082,3.082,0,0,1-1.5-2.292l-.039-.311.272.188a2.068,2.068,0,0,0,1.161.416h.008a1.825,1.825,0,0,0,1.137-.528c.509-.4.88-.64,1.484-.427a1.761,1.761,0,0,1,.316.159c.13.08.166.08.2.054s.036-.065-.059-.206a2.673,2.673,0,0,1-.146-.253h0a1.339,1.339,0,0,1-.067-.69c.1-.622.837-1.081,1.512-1.211a2.5,2.5,0,0,1,1.093.043l.154.04-.055.137a1.594,1.594,0,0,0,1.18,2.22,1.624,1.624,0,0,0,1.622-.737,1.166,1.166,0,0,0,.091-.893.062.062,0,0,0-.024-.029.094.094,0,0,0-.055-.007c-.036.011-.059.04-.051.069a1.066,1.066,0,0,1-.075.824,1.477,1.477,0,0,1-1.48.665,1.5,1.5,0,0,1-1.058-.784,1.549,1.549,0,0,1,.028-1.406,2.121,2.121,0,0,1,.916-.969,3.015,3.015,0,0,1,3.517.553,1.631,1.631,0,0,1,.3,1.128c.024.04.039.047.059.047a2.9,2.9,0,0,1,2.1.77,2,2,0,0,1,.521,1.363,2.653,2.653,0,0,1-.707,1.844h0a3.036,3.036,0,0,1-2.179,1.027,1.6,1.6,0,0,1-1.192-.51,1.12,1.12,0,0,1-.2-1.175,1.3,1.3,0,0,1,.936-.709,1.527,1.527,0,0,1,.837.087.08.08,0,0,0,.091-.036.058.058,0,0,0,.008-.043,1.518,1.518,0,0,0-.928-.116,1.445,1.445,0,0,0-1.038.784,1.227,1.227,0,0,0,.213,1.287,1.362,1.362,0,0,0,.482.365l.13.061-.091.17a2.842,2.842,0,0,1-1.449,1.2A1.785,1.785,0,0,1,42.356,63.384Zm-1.6-1.836h.024a.33.33,0,0,1,.316.311,1.2,1.2,0,0,0,.809,1.16,1.269,1.269,0,0,0,.951,0,2.516,2.516,0,0,0,1.251-1,1.736,1.736,0,0,1-.454-.372,1.471,1.471,0,0,1-.249-1.562,1.739,1.739,0,0,1,1.251-.94,1.96,1.96,0,0,1,1.093.116.313.313,0,0,1,.174.181.3.3,0,0,1-.028.257.381.381,0,0,1-.474.152,1.173,1.173,0,0,0-.651-.069,1.029,1.029,0,0,0-.722.557.868.868,0,0,0,.162.9,1.306,1.306,0,0,0,.975.4,2.8,2.8,0,0,0,1.938-.933,2.393,2.393,0,0,0,.636-1.659,1.757,1.757,0,0,0-.45-1.2,2.593,2.593,0,0,0-1.871-.676.372.372,0,0,1-.261-.094.291.291,0,0,1-.1-.242,1.416,1.416,0,0,0-.245-.958,2.723,2.723,0,0,0-3.122-.474,1.857,1.857,0,0,0-.793.839,1.29,1.29,0,0,0-.036,1.182,1.218,1.218,0,0,0,.841.64,1.167,1.167,0,0,0,1.168-.517.838.838,0,0,0,.055-.633.33.33,0,0,1,.257-.4.408.408,0,0,1,.284.033.318.318,0,0,1,.162.192,1.412,1.412,0,0,1-.111,1.084,1.944,1.944,0,0,1-1.934.882,1.922,1.922,0,0,1-1.362-.994,1.8,1.8,0,0,1-.1-1.446,2.135,2.135,0,0,0-.8,0c-.568.108-1.2.51-1.283.987a1.117,1.117,0,0,0,.047.549,1.369,1.369,0,0,0,.122.21c.071.108.233.358.008.549a.469.469,0,0,1-.564-.025,1.348,1.348,0,0,0-.261-.13c-.438-.155-.691-.007-1.172.369a2.125,2.125,0,0,1-1.342.6h-.008a2.214,2.214,0,0,1-1.05-.293,2.781,2.781,0,0,0,1.311,1.789,2.688,2.688,0,0,0,1.516.343,1.537,1.537,0,0,1,.493-.972,1.4,1.4,0,0,1,1.1-.369,1.569,1.569,0,0,1,1.279,1.363.3.3,0,0,1-.071.242.352.352,0,0,1-.612-.163.927.927,0,0,0-.675-.8.726.726,0,0,0-.533.2.976.976,0,0,0-.3.821,1.664,1.664,0,0,0,1.63,1.258c.829-.029,1.318-.361,1.449-.99A.333.333,0,0,1,40.758,61.548Z" transform="translate(-33.451 -54.853)" fill="#fff"/>
            </g>
          </g>
        </g>
      </g>
    </g>
  </g>
</svg>
