<?xml version="1.0" encoding="utf-8"?>
<!-- Generator: Adobe Illustrator 23.0.0, SVG Export Plug-In . SVG Version: 6.00 Build 0)  -->
<svg version="1.1" id="Layer_1" xmlns="http://www.w3.org/2000/svg" xmlns:xlink="http://www.w3.org/1999/xlink" x="0px" y="0px"
	 viewBox="0 0 537 207" style="enable-background:new 0 0 537 207;" xml:space="preserve">
<style type="text/css">
	.st0{fill:#FFFFFF;stroke:#FFFFFF;stroke-width:0.75;stroke-miterlimit:10;}
	.st1{fill:#7E1416;}
	.st2{fill:#FFFFFF;}
</style>
<path d="M171.23,89.28c1.24-0.23,2.49,0.7,2.49,2.02v8.93c0,1.24-1.09,2.17-2.25,2.1c-9.17-0.62-10.25,5.28-10.25,11.5v12.74
	c0,1.55-1.24,2.8-2.72,2.8h-7.15c-1.48,0-2.72-1.24-2.72-2.8V92.77c0-1.55,1.24-2.8,2.72-2.8h7.15c1.48,0,2.72,1.24,2.72,2.8v3.19
	C163.54,92.3,167.35,89.97,171.23,89.28z"/>
<path d="M177.91,78.94c0-3.65,3.03-6.6,6.68-6.6c3.65,0,6.6,2.95,6.6,6.6s-2.95,6.6-6.6,6.6C180.94,85.55,177.91,82.59,177.91,78.94
	z M178.22,126.56V92.77c0-1.55,1.24-2.8,2.8-2.8h7.07c1.55,0,2.8,1.24,2.8,2.8v33.79c0,1.55-1.24,2.8-2.8,2.8h-7.07
	C179.47,129.36,178.22,128.12,178.22,126.56z"/>
<path d="M229.49,117.09c0,8.31-6.06,13.21-17.63,13.21c-6.99,0-13.75-1.94-16.31-7.22c-0.62-1.09,0-2.49,1.24-2.88l7.69-2.41
	c0.85-0.23,1.79,0.08,2.33,0.78c0.78,1.09,2.33,1.94,4.89,1.94c2.64,0,4.74-0.78,4.74-2.88c0-2.64-4.12-2.56-8.7-3.57
	c-7.61-1.63-11.65-4.35-11.65-12.12c0-8.23,6.99-12.9,16.86-12.9c5.9,0,11.81,2.49,14.29,7.61c0.54,1.17-0.16,2.64-1.4,2.95
	l-6.68,1.63c-0.78,0.16-1.63-0.16-2.1-0.85c-0.78-1.09-2.25-1.71-4.04-1.71c-2.49,0-4.74,0.7-4.74,2.95c0,2.56,4.19,2.72,7.3,3.34
	C225.53,107.06,229.49,109.86,229.49,117.09z"/>
<path d="M272.3,110.72c0,1.55-1.24,2.8-2.72,2.8h-25.87c1.32,4.58,5.13,6.68,9.94,6.68c3.11,0,5.51-1.17,6.99-2.41
	c0.7-0.62,1.63-0.7,2.41-0.23l5.52,3.26c1.09,0.7,1.32,2.17,0.54,3.18c-3.42,3.81-8.86,6.29-15.46,6.29
	c-13.36,0-22.14-8.39-22.14-20.59c0-11.65,9.01-20.66,20.27-20.66C262.82,89.04,272.53,96.03,272.3,110.72z M260.8,105.9
	c-1.01-4.66-4.2-6.76-8.54-6.76c-4.04,0-7.3,2.41-8.47,6.76H260.8z"/>
<path d="M299.72,89.28c1.24-0.23,2.49,0.7,2.49,2.02v8.93c0,1.24-1.09,2.17-2.25,2.1c-9.17-0.62-10.25,5.28-10.25,11.5v12.74
	c0,1.55-1.24,2.8-2.72,2.8h-7.15c-1.48,0-2.72-1.24-2.72-2.8V92.77c0-1.55,1.24-2.8,2.72-2.8h7.15c1.48,0,2.72,1.24,2.72,2.8v3.19
	C292.03,92.3,295.83,89.97,299.72,89.28z"/>
<path d="M335.76,89.97h7.77c1.55,0,2.8,1.24,2.8,2.8v33.79c0,1.55-1.24,2.8-2.8,2.8h-7.77c-1.17,0-2.1-0.93-2.1-2.1v-1.79
	c-2.33,2.87-5.83,4.82-11.11,4.82c-12.27,0-18.88-10.33-18.88-20.59c0-10.33,6.6-20.66,18.88-20.66c5.28,0,8.78,1.94,11.11,4.82
	v-1.79C333.67,90.91,334.6,89.97,335.76,89.97z M333.28,109.71c0-5.28-3.73-8.47-8.47-8.47c-5.2,0-8.39,3.57-8.39,8.47
	c0,4.82,3.19,8.39,8.39,8.39C329.55,118.1,333.28,114.91,333.28,109.71z"/>
<path d="M412.2,103.34v23.23c0,1.55-1.24,2.8-2.8,2.8h-7.07c-1.55,0-2.8-1.24-2.8-2.8v-19.81c0-4.43-3.18-5.36-5.2-5.36
	c-2.1,0-5.28,1.01-5.28,5.36v19.81c0,1.55-1.24,2.8-2.8,2.8h-7.07c-1.48,0-2.72-1.24-2.72-2.8v-19.81c0-4.43-3.18-5.36-5.28-5.36
	c-2.02,0-5.28,1.01-5.28,5.36v19.81c0,1.55-1.24,2.8-2.72,2.8h-7.07c-1.55,0-2.8-1.24-2.8-2.8V92.77c0-1.55,1.24-2.8,2.8-2.8h7.77
	c1.09,0,2.02,0.93,2.02,2.1V93c2.02-2.25,5.13-3.96,9.79-3.96c5.44,0,9.01,2.02,11.11,5.28c2.25-2.95,5.9-5.28,11.26-5.28
	C407.77,89.04,412.2,95.41,412.2,103.34z"/>
<path d="M457.65,110.72c0,1.55-1.24,2.8-2.72,2.8h-25.87c1.32,4.58,5.13,6.68,9.94,6.68c3.11,0,5.51-1.17,6.99-2.41
	c0.7-0.62,1.63-0.7,2.41-0.23l5.52,3.26c1.09,0.7,1.32,2.17,0.54,3.18c-3.42,3.81-8.86,6.29-15.46,6.29
	c-13.36,0-22.14-8.39-22.14-20.59c0-11.65,9.01-20.66,20.27-20.66C448.17,89.04,457.88,96.03,457.65,110.72z M446.15,105.9
	c-1.01-4.66-4.2-6.76-8.54-6.76c-4.04,0-7.3,2.41-8.47,6.76H446.15z"/>
<path d="M500.29,104.73v21.83c0,1.55-1.24,2.8-2.72,2.8h-7.15c-1.48,0-2.72-1.24-2.72-2.8v-18.41c0-4.58-2.8-6.76-6.29-6.76
	c-3.73,0-6.29,2.33-6.29,6.76v18.41c0,1.55-1.24,2.8-2.8,2.8h-7.07c-1.55,0-2.8-1.24-2.8-2.8V92.77c0-1.55,1.24-2.8,2.8-2.8h7.77
	c1.17,0,2.1,0.93,2.1,2.1v1.48c2.18-2.56,5.59-4.51,10.72-4.51C495.71,89.04,500.29,96.81,500.29,104.73z"/>
<path d="M303.81,75.14v5.07c0,1.55,1.24,2.8,2.8,2.8h5.16h23.01h8.62c1.55,0,2.8-1.24,2.8-2.8v-5.07c0-1.55-1.24-2.8-2.8-2.8h-8.62
	h-22.5h-5.67C305.05,72.34,303.81,73.58,303.81,75.14z"/>
<g>
	<path d="M125.18,55.48c-1.47-0.5-3.06,0.28-3.57,1.74l-11.26,32.77c-0.46-1.54-1.11-2.99-1.9-4.35l7.33-32.55
		c0.34-1.51-0.61-3.01-2.12-3.36c-1.51-0.33-3.02,0.61-3.36,2.12l-6.38,28.35c-3.59-3.04-8.23-4.89-13.3-4.89
		c-1.31,0-2.58,0.16-3.84,0.4c-4.51-3.57-10.09-5.55-15.89-5.55c-13.35,0-24.34,10.24-25.56,23.28h-3.28c-0.75,0-1.48,0.3-2,0.84
		c-0.53,0.54-0.82,1.26-0.81,2.02c0.24,14.11,7.35,26.98,19.08,34.76v8.78c0,1.55,1.26,2.81,2.81,2.81h41.44
		c1.55,0,2.81-1.26,2.81-2.81v-8.77c11.73-7.77,18.84-20.64,19.08-34.77c0.01-0.75-0.28-1.48-0.81-2.02c-0.53-0.54-1.25-0.84-2-0.84
		h-6.55l11.82-34.42C127.42,57.58,126.64,55.99,125.18,55.48z M68.27,85.5c-3.72,1.15-6.8,4.09-8.52,7.96H57.6
		c1.81-5.24,5.61-9.29,10.36-10.76c2.25-0.71,4.69-0.75,7.02-0.18c-0.12,0.13-0.23,0.27-0.34,0.41c-0.37,0.45-0.71,0.91-1.04,1.39
		c-0.07,0.11-0.15,0.21-0.22,0.32c-0.08,0.13-0.16,0.26-0.24,0.39C71.47,84.85,69.83,85.02,68.27,85.5z M71.29,88.75
		c-0.03,0.07-0.05,0.15-0.07,0.22c-0.24,0.66-0.44,1.33-0.61,2.01c-0.03,0.13-0.05,0.27-0.09,0.4c-0.13,0.58-0.24,1.16-0.32,1.75
		c-0.02,0.11-0.05,0.22-0.06,0.33h-6.15c1.32-2.13,3.21-3.71,5.4-4.39C70,88.89,70.64,88.79,71.29,88.75z M90.61,87.83
		c-0.86,0-1.71,0.13-2.52,0.38c-2.5,0.77-4.59,2.7-5.83,5.25H80.9c1.31-3.42,3.87-6.05,7.02-7.02c0.87-0.27,1.77-0.41,2.69-0.41
		c4.27,0,8,3,9.68,7.43h-1.33C97.31,90.05,94.14,87.83,90.61,87.83z M95.69,93.47H85.51c0.89-1.24,2.06-2.16,3.41-2.57
		c0.54-0.17,1.11-0.26,1.69-0.26C92.61,90.64,94.44,91.72,95.69,93.47z M81.09,84.36c0.49-0.4,1-0.77,1.54-1.1
		c0.09-0.06,0.18-0.11,0.27-0.16c0.54-0.33,1.11-0.62,1.7-0.88c0.08-0.04,0.17-0.07,0.25-0.1c0.62-0.26,1.26-0.49,1.92-0.66
		c1.23-0.33,2.53-0.5,3.85-0.5c7.43,0,13.61,5.42,14.8,12.52h-2.13c-1.88-6.06-6.88-10.24-12.68-10.24c-1.2,0-2.39,0.18-3.52,0.53
		c-4.29,1.32-7.67,5.01-9.14,9.7h-2.14c0,0,0-0.01,0-0.01c0.11-0.65,0.27-1.28,0.46-1.9c0.03-0.1,0.06-0.19,0.09-0.29
		c0.19-0.59,0.43-1.16,0.69-1.72c0.05-0.1,0.1-0.21,0.15-0.31c0.28-0.55,0.59-1.09,0.93-1.6c0.05-0.07,0.1-0.14,0.15-0.21
		c0.74-1.07,1.62-2.05,2.62-2.9C80.97,84.47,81.03,84.41,81.09,84.36z M70.89,75.8c3.29,0,6.5,0.81,9.36,2.32
		c-0.09,0.05-0.17,0.12-0.25,0.17c-0.5,0.3-0.99,0.63-1.47,0.97c-0.15,0.11-0.3,0.22-0.45,0.33c0,0-0.01,0.01-0.01,0.01
		c-2-0.8-4.08-1.22-6.23-1.22c-1.71,0-3.4,0.26-5,0.76c-6.26,1.93-11.2,7.39-13.19,14.33h-2.69C52.15,83.53,60.63,75.8,70.89,75.8z"
		/>
	<g>
		<g>
			<g>
				<path class="st0" d="M99.39,112.62c-0.01-0.61-0.03-2.47-1.43-4.11c-1.63-1.91-4.08-2.28-5.32-2.33c0-1.11-0.29-2.13-0.85-2.96
					c-0.9-1.34-2.58-2.29-4.56-2.6c-1.94-0.31-3.92,0.02-5.4,0.89c-1.19,0.7-1.89,1.66-2.28,2.36c-0.86-0.26-2.02-0.43-3.3-0.17
					c-1.95,0.41-4.05,1.87-4.33,3.86c-0.14,0.96,0.06,1.74,0.17,2.08c-1.94-0.7-3.21,0.35-4.29,1.28c-0.81,0.69-1.56,1.35-2.56,1.34
					c-1.68-0.01-3.13-1.5-3.29-1.67c-0.15-0.16-0.37-0.22-0.56-0.16c-0.19,0.06-0.31,0.23-0.32,0.43c-0.03,3.38,1.69,6.59,4.29,8.17
					c1.2,0.74,2.41,1.05,3.4,1.14c0.61,0.06,1.14,0.04,1.53-0.02c0.67,2.4,2.62,4.17,4.82,4.39c0.21,0.02,0.42,0.03,0.63,0.02
					c1.95-0.07,3.44-0.85,4.29-2.2c0.42,1.14,1.23,2.01,2.47,2.65c1.01,0.52,2.19,0.55,3.44,0.07c1.63-0.62,3.23-2.07,4.07-3.68
					c0.04-0.08,0.08-0.15,0.11-0.23c0.28,0.07,0.57,0.12,0.88,0.15c0.08,0.01,0.17,0.01,0.25,0.02c3.16,0.19,5.64-2.58,6.12-3.13
					C98.67,116.68,99.42,114.7,99.39,112.62z M96.61,117.6c-0.25,0.3-2.48,2.87-5.22,2.71c-1.23-0.07-2.15-0.5-2.74-1.27
					c-0.11-0.15-1.09-1.46-0.46-2.87c0.62-1.37,1.76-1.68,2.1-1.75c0.92-0.18,1.63,0.09,1.88,0.21c0.25,0.12,0.57,0.01,0.72-0.26
					c0.14-0.26,0.05-0.57-0.2-0.69c-0.35-0.17-1.31-0.53-2.53-0.29c-0.47,0.09-2.07,0.53-2.9,2.39c-0.88,1.98,0.44,3.75,0.59,3.94
					c0.37,0.47,0.82,0.84,1.35,1.11c-0.02,0.04-0.04,0.09-0.06,0.13c-0.71,1.36-2.07,2.6-3.47,3.13c-0.7,0.27-1.73,0.48-2.72-0.03
					c-1.52-0.78-2.2-1.84-2.25-3.53c-0.01-0.26-0.2-0.47-0.45-0.5c0,0-0.01,0-0.01,0c-0.25-0.02-0.48,0.16-0.53,0.42
					c-0.46,2.41-2.44,2.99-4.02,3.05c-2.09,0.08-4-1.57-4.51-3.83c-0.07-1,0.24-1.94,0.88-2.57c0.49-0.48,1.11-0.72,1.66-0.65
					c0.97,0.13,1.85,1.23,2.03,2.54c0.04,0.29,0.29,0.49,0.56,0.45c0.27-0.03,0.46-0.3,0.42-0.58c-0.24-1.8-1.47-3.25-2.92-3.45
					c-0.86-0.12-1.77,0.21-2.47,0.91c-0.72,0.71-1.12,1.69-1.16,2.76c-0.28,0.05-2.26,0.33-4.39-0.97c-1.98-1.2-3.35-3.51-3.63-6.06
					c0.76,0.57,1.88,1.22,3.17,1.23c1.36,0.01,2.32-0.83,3.18-1.57c1.18-1.02,2-1.61,3.35-1.09c0.3,0.12,0.55,0.28,0.72,0.4
					c0.24,0.16,0.63,0.42,0.97,0.11c0.35-0.32,0.1-0.74-0.08-1.04c-0.11-0.18-0.24-0.41-0.34-0.65c0-0.01-0.29-0.75-0.15-1.71
					c0.23-1.54,1.99-2.71,3.54-3.04c0.99-0.21,1.9-0.09,2.59,0.11c-0.3,0.81-0.72,2.43,0.11,4.09c0.33,0.66,1.29,2.23,3.18,2.55
					c1.79,0.3,3.71-0.66,4.51-2.24c0.56-1.11,0.4-2.19,0.26-2.73c-0.07-0.28-0.37-0.44-0.67-0.36c-0.29,0.08-0.47,0.37-0.39,0.65
					c0.11,0.41,0.24,1.21-0.16,2.01c-0.58,1.16-2.01,1.86-3.35,1.64c-1.41-0.23-2.15-1.46-2.4-1.97c-0.75-1.52-0.15-3.02,0.08-3.58
					c0.2-0.49,0.81-1.7,2.16-2.5c2.67-1.57,6.86-0.88,8.41,1.42c0.53,0.79,0.77,1.78,0.69,2.88c-0.01,0.14,0.04,0.28,0.14,0.38
					c0.1,0.1,0.24,0.15,0.39,0.15c0.76-0.02,3.38,0.07,5.03,2c1.19,1.4,1.22,3.01,1.23,3.54C98.33,113.8,98.11,115.82,96.61,117.6z"
					/>
			</g>
			<g>
				<path class="st1" d="M96.61,117.6c-0.25,0.3-2.48,2.87-5.22,2.71c-1.23-0.07-2.15-0.5-2.74-1.27c-0.11-0.15-1.09-1.46-0.46-2.87
					c0.62-1.37,1.76-1.68,2.1-1.75c0.92-0.18,1.63,0.09,1.88,0.21c0.25,0.12,0.57,0.01,0.72-0.26c0.14-0.26,0.05-0.57-0.2-0.69
					c-0.35-0.17-1.31-0.53-2.53-0.29c-0.47,0.09-2.07,0.53-2.9,2.39c-0.88,1.98,0.44,3.75,0.59,3.94c0.37,0.47,0.82,0.84,1.35,1.11
					c-0.02,0.04-0.04,0.09-0.06,0.13c-0.71,1.36-2.07,2.6-3.47,3.13c-0.7,0.27-1.73,0.48-2.72-0.03c-1.52-0.78-2.2-1.84-2.25-3.53
					c-0.01-0.26-0.2-0.47-0.45-0.5c0,0-0.01,0-0.01,0c-0.25-0.02-0.48,0.16-0.53,0.42c-0.46,2.41-2.44,2.99-4.02,3.05
					c-2.09,0.08-4-1.57-4.51-3.83c-0.07-1,0.24-1.94,0.88-2.57c0.49-0.48,1.11-0.72,1.66-0.65c0.97,0.13,1.85,1.23,2.03,2.54
					c0.04,0.29,0.29,0.49,0.56,0.45c0.27-0.03,0.46-0.3,0.42-0.58c-0.24-1.8-1.47-3.25-2.92-3.45c-0.86-0.12-1.77,0.21-2.47,0.91
					c-0.72,0.71-1.12,1.69-1.16,2.76c-0.28,0.05-2.26,0.33-4.39-0.97c-1.98-1.2-3.35-3.51-3.63-6.06c0.76,0.57,1.88,1.22,3.17,1.23
					c1.36,0.01,2.32-0.83,3.18-1.57c1.18-1.02,2-1.61,3.35-1.09c0.3,0.12,0.55,0.28,0.72,0.4c0.24,0.16,0.63,0.42,0.97,0.11
					c0.35-0.32,0.1-0.74-0.08-1.04c-0.11-0.18-0.24-0.41-0.34-0.65c0-0.01-0.29-0.75-0.15-1.71c0.23-1.54,1.99-2.71,3.54-3.04
					c0.99-0.21,1.9-0.09,2.59,0.11c-0.3,0.81-0.72,2.43,0.11,4.09c0.33,0.66,1.29,2.23,3.18,2.55c1.79,0.3,3.71-0.66,4.51-2.24
					c0.56-1.11,0.4-2.19,0.26-2.73c-0.07-0.28-0.37-0.44-0.67-0.36c-0.29,0.08-0.47,0.37-0.39,0.65c0.11,0.41,0.24,1.21-0.16,2.01
					c-0.58,1.16-2.01,1.86-3.35,1.64c-1.41-0.23-2.15-1.46-2.4-1.97c-0.75-1.52-0.15-3.02,0.08-3.58c0.2-0.49,0.81-1.7,2.16-2.5
					c2.67-1.57,6.86-0.88,8.41,1.42c0.53,0.79,0.77,1.78,0.69,2.88c-0.01,0.14,0.04,0.28,0.14,0.38c0.1,0.1,0.24,0.15,0.39,0.15
					c0.76-0.02,3.38,0.07,5.03,2c1.19,1.4,1.22,3.01,1.23,3.54C98.33,113.8,98.11,115.82,96.61,117.6z"/>
				<path class="st2" d="M84.25,124.76c-0.53,0-1.03-0.12-1.48-0.35c-1.64-0.84-2.4-2.03-2.45-3.85c0-0.07-0.05-0.13-0.11-0.13
					c-0.06-0.01-0.12,0.04-0.13,0.12c-0.39,2.07-1.95,3.26-4.38,3.35c-2.26,0.08-4.33-1.65-4.89-4.12
					c-0.09-1.17,0.27-2.21,0.99-2.92c0.57-0.56,1.31-0.85,1.98-0.75c1.14,0.16,2.15,1.39,2.35,2.86c0.01,0.08,0.07,0.15,0.14,0.13
					c0.09-0.06,0.11-0.1,0.1-0.16c-0.22-1.64-1.31-2.95-2.6-3.13c-0.75-0.1-1.54,0.19-2.16,0.81c-0.64,0.63-1.01,1.52-1.05,2.51
					l-0.01,0.3l-0.3,0.05c-0.39,0.07-2.44,0.33-4.65-1.02c-2.05-1.25-3.51-3.68-3.81-6.34l-0.1-0.86l0.69,0.52
					c1.01,0.76,2,1.15,2.94,1.15c0.01,0,0.01,0,0.02,0c1.19,0,2.05-0.74,2.88-1.46c1.29-1.11,2.23-1.77,3.76-1.18
					c0.34,0.13,0.61,0.32,0.8,0.44c0.33,0.22,0.42,0.22,0.5,0.15c0.09-0.08,0.09-0.18-0.15-0.57c-0.12-0.21-0.26-0.45-0.37-0.7l0,0
					c0,0-0.33-0.82-0.17-1.91c0.25-1.72,2.12-2.99,3.83-3.35c0.88-0.19,1.84-0.14,2.77,0.12l0.39,0.11l-0.14,0.38
					c-0.35,0.95-0.62,2.38,0.09,3.8c0.38,0.76,1.26,2.07,2.9,2.34c1.62,0.27,3.39-0.6,4.11-2.04c0.51-1.01,0.36-1.98,0.23-2.47
					c-0.01-0.04-0.04-0.06-0.06-0.08c-0.04-0.02-0.09-0.03-0.14-0.02c-0.09,0.03-0.15,0.11-0.13,0.19c0.13,0.46,0.27,1.36-0.19,2.28
					c-0.65,1.3-2.26,2.09-3.75,1.84c-1.57-0.26-2.4-1.61-2.68-2.17c-0.84-1.69-0.16-3.34,0.07-3.89c0.22-0.52,0.87-1.83,2.32-2.68
					c2.84-1.68,7.26-0.92,8.91,1.53c0.58,0.85,0.84,1.93,0.75,3.12c0.06,0.11,0.1,0.13,0.15,0.13c0.8-0.02,3.57,0.07,5.33,2.13
					c1.27,1.49,1.31,3.21,1.32,3.77c0.02,0.88-0.12,3.13-1.79,5.1l0,0c-0.43,0.5-2.69,3.03-5.52,2.84
					c-1.34-0.08-2.35-0.55-3.02-1.41c-0.21-0.27-1.2-1.7-0.5-3.25c0.69-1.53,1.99-1.89,2.37-1.96c1.03-0.2,1.82,0.11,2.12,0.24
					c0.06,0.03,0.17,0,0.23-0.1c0.02-0.04,0.03-0.08,0.02-0.12c-0.37-0.21-1.23-0.53-2.35-0.32c-0.43,0.08-1.87,0.48-2.63,2.17
					c-0.77,1.72,0.32,3.27,0.54,3.56c0.33,0.43,0.74,0.77,1.22,1.01l0.33,0.17l-0.23,0.47c-0.75,1.44-2.19,2.74-3.67,3.31
					C85.26,124.66,84.74,124.76,84.25,124.76z M80.2,119.68c0.02,0,0.04,0,0.06,0c0.45,0.04,0.79,0.41,0.8,0.86
					c0.04,1.55,0.64,2.48,2.05,3.21c0.86,0.44,1.79,0.25,2.41,0.01c1.26-0.48,2.48-1.55,3.17-2.77c-0.44-0.27-0.82-0.62-1.15-1.03
					c-0.27-0.35-1.58-2.21-0.63-4.32c0.9-2.02,2.65-2.5,3.17-2.6c1.34-0.26,2.38,0.14,2.77,0.32c0.21,0.1,0.37,0.28,0.44,0.5
					c0.08,0.23,0.05,0.49-0.07,0.71c-0.24,0.44-0.77,0.63-1.2,0.42c-0.23-0.11-0.85-0.34-1.65-0.19c-0.29,0.06-1.28,0.34-1.83,1.54
					c-0.53,1.16,0.25,2.28,0.41,2.49c0.52,0.68,1.35,1.05,2.47,1.12c2.47,0.12,4.52-2.12,4.91-2.58c1.5-1.78,1.63-3.8,1.61-4.59
					c-0.01-0.5-0.04-2.02-1.14-3.31c-1.54-1.81-4.02-1.88-4.74-1.87c-0.27,0-0.49-0.09-0.66-0.26c-0.18-0.18-0.27-0.42-0.25-0.67
					c0.07-1.02-0.14-1.93-0.62-2.65c-1.43-2.12-5.42-2.77-7.91-1.31c-1.25,0.74-1.82,1.87-2.01,2.32c-0.33,0.81-0.71,2.03-0.09,3.27
					c0.23,0.46,0.9,1.56,2.13,1.77c1.18,0.2,2.45-0.42,2.96-1.43c0.35-0.69,0.23-1.39,0.14-1.75c-0.13-0.47,0.16-0.97,0.65-1.11
					c0.24-0.07,0.5-0.03,0.72,0.09c0.21,0.12,0.35,0.31,0.41,0.53c0.16,0.59,0.34,1.77-0.28,3c-0.86,1.71-2.97,2.76-4.9,2.44
					c-2.04-0.34-3.09-2.04-3.45-2.75c-0.73-1.47-0.58-2.93-0.26-4c-0.69-0.14-1.38-0.15-2.03-0.01c-1.44,0.3-3.05,1.41-3.25,2.73
					c-0.13,0.85,0.12,1.51,0.12,1.52c0.09,0.22,0.21,0.42,0.31,0.58c0.18,0.3,0.59,0.99,0.02,1.52c-0.55,0.51-1.19,0.09-1.43-0.07
					c-0.17-0.11-0.39-0.26-0.66-0.36c-1.11-0.43-1.75-0.02-2.97,1.02c-0.92,0.79-1.93,1.66-3.4,1.66c-0.01,0-0.01,0-0.02,0
					c-0.87,0-1.76-0.28-2.66-0.81c0.45,2.1,1.67,3.94,3.32,4.95s3.18,1.01,3.84,0.95c0.11-1.05,0.55-2,1.25-2.69
					c0.79-0.78,1.8-1.15,2.79-1.02c1.62,0.22,2.98,1.81,3.24,3.77c0.03,0.24-0.03,0.48-0.18,0.67c-0.14,0.18-0.34,0.3-0.57,0.33
					c-0.47,0.06-0.92-0.28-0.98-0.78c-0.16-1.13-0.91-2.11-1.71-2.22c-0.43-0.05-0.95,0.15-1.35,0.54
					c-0.56,0.55-0.84,1.38-0.77,2.27c0.47,2.03,2.23,3.57,4.13,3.48c2.1-0.08,3.34-1,3.67-2.74
					C79.42,119.98,79.78,119.68,80.2,119.68z"/>
			</g>
		</g>
	</g>
</g>
</svg>
